<?xml version="1.0" encoding="UTF-8" standalone="no"?>
<!DOCTYPE svg PUBLIC "-//W3C//DTD SVG 1.1//EN" "http://www.w3.org/Graphics/SVG/1.1/DTD/svg11.dtd">
<svg xmlns="http://www.w3.org/2000/svg" version="1.1" viewBox="0 0 32 27">
<g stroke-width="2.0" fill="none" stroke-linecap="butt">
<path stroke="#9ee5af" vector-effect="non-scaling-stroke" d="
  M 29.46 5.75
  Q 24.13 6.23 18.79 6.51
  Q 17.58 6.58 16.99 7.09
  Q 15.89 8.05 16.92 9.37
  A 1.25 1.05 -12.7 0 0 17.75 9.80
  L 29.46 11.00"
/>
<path stroke="#9de557" vector-effect="non-scaling-stroke" d="
  M 29.54 17.75
  Q 30.03 15.22 28.92 13.00
  A 0.96 0.93 -8.8 0 0 28.20 12.49
  Q 23.52 11.87 18.83 12.49
  Q 18.28 12.56 17.87 12.87
  Q 16.11 14.22 19.00 14.01
  Q 20.64 13.88 21.79 15.00"
/>
<path stroke="#82c94e" vector-effect="non-scaling-stroke" d="
  M 21.79 15.00
  Q 21.49 15.60 21.54 16.25"
/>
<path stroke="#9de557" vector-effect="non-scaling-stroke" d="
  M 21.54 16.25
  L 21.46 16.50"
/>
<path stroke="#82c94e" vector-effect="non-scaling-stroke" d="
  M 21.46 16.50
  Q 20.07 17.54 18.25 17.29"
/>
<path stroke="#9de557" vector-effect="non-scaling-stroke" d="
  M 18.25 17.29
  Q 16.79 16.84 16.50 18.25
  Q 15.81 21.64 18.75 19.96"
/>
<path stroke="#82c94e" vector-effect="non-scaling-stroke" d="
  M 18.75 19.96
  L 20.00 19.96"
/>
<path stroke="#9de557" vector-effect="non-scaling-stroke" d="
  M 20.00 19.96
  Q 20.96 20.34 22.00 20.29"
/>
<path stroke="#82c94e" vector-effect="non-scaling-stroke" d="
  M 22.00 20.29
  Q 23.46 22.00 23.50 24.21"
/>
<path stroke="#9de557" vector-effect="non-scaling-stroke" d="
  M 23.50 24.21
  L 21.19 27.00"
/>
<path stroke="#3ecc5f" vector-effect="non-scaling-stroke" d="
  M 26.92 3.20
  Q 26.97 2.81 26.61 2.83
  A 0.86 0.67 -75.7 0 0 25.97 3.33
  Q 25.61 4.11 26.47 3.73
  A 0.77 0.62 -10.6 0 0 26.92 3.20"
/>
<path stroke="#3ecc5f" vector-effect="non-scaling-stroke" d="
  M 23.74 3.50
  A 0.74 0.52 0.0 0 0 23.00 2.98
  A 0.74 0.52 0.0 0 0 22.26 3.50
  A 0.74 0.52 0.0 0 0 23.00 4.02
  A 0.74 0.52 0.0 0 0 23.74 3.50"
/>
<path stroke="#206f30" vector-effect="non-scaling-stroke" d="
  M 8.92 5.25
  Q 9.89 6.98 10.13 5.57
  A 1.04 0.98 28.9 0 0 9.85 4.69
  Q 7.71 2.49 6.29 5.11
  A 1.08 0.85 -47.5 0 0 6.22 6.03
  Q 6.57 6.71 7.13 5.60
  Q 7.50 4.86 8.19 4.79
  A 0.88 0.65 68.6 0 1 8.92 5.25"
/>
<path stroke="#d1d2d2" vector-effect="non-scaling-stroke" d="
  M 27.51 8.94
  Q 28.27 9.72 28.59 8.55
  A 0.37 0.32 4.1 0 0 28.19 8.15
  Q 27.39 8.21 26.81 7.63
  A 0.84 0.67 54.7 0 0 26.02 7.40
  L 24.96 7.80
  A 1.06 1.04 49.8 0 1 24.09 7.72
  Q 22.89 7.04 21.67 7.72
  A 1.03 0.90 -46.0 0 1 20.81 7.79
  Q 19.00 7.02 18.35 8.59
  Q 18.16 9.04 18.63 8.83
  Q 19.82 8.30 21.01 8.92
  A 1.05 1.04 48.0 0 0 21.89 8.97
  Q 23.10 8.50 24.30 9.02
  A 0.79 0.79 37.1 0 0 25.11 8.91
  Q 25.84 8.34 26.70 8.45
  A 1.58 0.71 55.5 0 1 27.51 8.94"
/>
<path stroke="#9de557" vector-effect="non-scaling-stroke" d="
  M 29.75 20.21
  Q 29.97 23.93 28.19 27.00"
/>
<path stroke="#e1e146" vector-effect="non-scaling-stroke" d="
  M 23.50 24.21
  L 26.70 24.44
  A 0.53 0.48 -86.1 0 0 27.22 23.94
  Q 27.31 22.47 27.40 21.01
  Q 27.51 19.28 26.40 19.96
  A 2.05 1.49 20.4 0 1 25.50 20.21
  L 22.00 20.29"
/>
<path stroke="#e1e146" vector-effect="non-scaling-stroke" d="
  M 20.00 19.96
  Q 22.40 18.32 25.33 18.25
  Q 25.67 18.24 26.14 18.38
  Q 27.23 18.69 26.97 17.95
  A 0.75 0.60 -9.7 0 0 26.24 17.55
  Q 23.70 17.71 21.46 16.50"
/>
<path stroke="#e1e146" vector-effect="non-scaling-stroke" d="
  M 21.54 16.25
  L 26.45 15.89
  Q 27.08 15.84 26.82 15.47
  Q 26.60 15.16 26.00 15.25
  Q 24.32 15.51 21.79 15.00"
/>
<path stroke="#e1e146" vector-effect="non-scaling-stroke" d="
  M 18.75 19.96
  Q 18.95 18.49 18.25 17.29"
/>
</g>
<path fill="#3ecc5f" d="
  M 29.46 5.75
  Q 24.13 6.23 18.79 6.51
  Q 17.58 6.58 16.99 7.09
  Q 15.89 8.05 16.92 9.37
  A 1.25 1.05 -12.7 0 0 17.75 9.80
  L 29.46 11.00
  Q 28.99 13.29 30.74 14.33
  A 1.40 0.90 16.8 0 1 31.35 15.04
  Q 31.88 17.08 29.54 17.75
  Q 30.03 15.22 28.92 13.00
  A 0.96 0.93 -8.8 0 0 28.20 12.49
  Q 23.52 11.87 18.83 12.49
  Q 18.28 12.56 17.87 12.87
  Q 16.11 14.22 19.00 14.01
  Q 20.64 13.88 21.79 15.00
  Q 21.49 15.60 21.54 16.25
  L 21.46 16.50
  Q 20.07 17.54 18.25 17.29
  Q 16.79 16.84 16.50 18.25
  Q 15.81 21.64 18.75 19.96
  L 20.00 19.96
  Q 20.96 20.34 22.00 20.29
  Q 23.46 22.00 23.50 24.21
  L 21.19 27.00
  L 2.44 27.00
  Q 0.61 26.31 0.00 24.44
  L 0.00 22.69
  L 1.97 23.26
  A 0.37 0.35 9.0 0 0 2.44 22.94
  L 2.72 4.00
  Q 2.76 0.99 5.80 0.44
  Q 8.28 0.00 10.68 0.40
  Q 14.22 1.00 15.41 1.00
  Q 19.87 1.00 24.33 1.00
  Q 27.04 1.00 28.05 1.58
  Q 30.02 2.72 29.46 5.75
  Z
  M 26.92 3.20
  Q 26.97 2.81 26.61 2.83
  A 0.86 0.67 -75.7 0 0 25.97 3.33
  Q 25.61 4.11 26.47 3.73
  A 0.77 0.62 -10.6 0 0 26.92 3.20
  Z
  M 23.74 3.50
  A 0.74 0.52 0.0 0 0 23.00 2.98
  A 0.74 0.52 0.0 0 0 22.26 3.50
  A 0.74 0.52 0.0 0 0 23.00 4.02
  A 0.74 0.52 0.0 0 0 23.74 3.50
  Z
  M 8.92 5.25
  Q 9.89 6.98 10.13 5.57
  A 1.04 0.98 28.9 0 0 9.85 4.69
  Q 7.71 2.49 6.29 5.11
  A 1.08 0.85 -47.5 0 0 6.22 6.03
  Q 6.57 6.71 7.13 5.60
  Q 7.50 4.86 8.19 4.79
  A 0.88 0.65 68.6 0 1 8.92 5.25
  Z"
/>
<path fill="#3ecc5f" d="
  M 26.47 3.73
  Q 25.61 4.11 25.97 3.33
  A 0.86 0.67 -75.7 0 1 26.61 2.83
  Q 26.97 2.81 26.92 3.20
  A 0.77 0.62 -10.6 0 1 26.47 3.73
  Z"
/>
<ellipse fill="#3ecc5f" cx="23.00" cy="3.50" rx="0.74" ry="0.52"/>
<path fill="#021101" d="
  M 8.19 4.79
  Q 7.50 4.86 7.13 5.60
  Q 6.57 6.71 6.22 6.03
  A 1.08 0.85 -47.5 0 1 6.29 5.11
  Q 7.71 2.49 9.85 4.69
  A 1.04 0.98 28.9 0 1 10.13 5.57
  Q 9.89 6.98 8.92 5.25
  A 0.88 0.65 68.6 0 0 8.19 4.79
  Z"
/>
<path fill="#fdfefe" d="
  M 29.46 5.75
  L 29.46 11.00
  L 17.75 9.80
  A 1.25 1.05 -12.7 0 1 16.92 9.37
  Q 15.89 8.05 16.99 7.09
  Q 17.58 6.58 18.79 6.51
  Q 24.13 6.23 29.46 5.75
  Z
  M 27.51 8.94
  Q 28.27 9.72 28.59 8.55
  A 0.37 0.32 4.1 0 0 28.19 8.15
  Q 27.39 8.21 26.81 7.63
  A 0.84 0.67 54.7 0 0 26.02 7.40
  L 24.96 7.80
  A 1.06 1.04 49.8 0 1 24.09 7.72
  Q 22.89 7.04 21.67 7.72
  A 1.03 0.90 -46.0 0 1 20.81 7.79
  Q 19.00 7.02 18.35 8.59
  Q 18.16 9.04 18.63 8.83
  Q 19.82 8.30 21.01 8.92
  A 1.05 1.04 48.0 0 0 21.89 8.97
  Q 23.10 8.50 24.30 9.02
  A 0.79 0.79 37.1 0 0 25.11 8.91
  Q 25.84 8.34 26.70 8.45
  A 1.58 0.71 55.5 0 1 27.51 8.94
  Z"
/>
<path fill="#a4a5a6" d="
  M 26.70 8.45
  Q 25.84 8.34 25.11 8.91
  A 0.79 0.79 37.1 0 1 24.30 9.02
  Q 23.10 8.50 21.89 8.97
  A 1.05 1.04 48.0 0 1 21.01 8.92
  Q 19.82 8.30 18.63 8.83
  Q 18.16 9.04 18.35 8.59
  Q 19.00 7.02 20.81 7.79
  A 1.03 0.90 -46.0 0 0 21.67 7.72
  Q 22.89 7.04 24.09 7.72
  A 1.06 1.04 49.8 0 0 24.96 7.80
  L 26.02 7.40
  A 0.84 0.67 54.7 0 1 26.81 7.63
  Q 27.39 8.21 28.19 8.15
  A 0.37 0.32 4.1 0 1 28.59 8.55
  Q 28.27 9.72 27.51 8.94
  A 1.58 0.71 55.5 0 0 26.70 8.45
  Z"
/>
<path fill="#fcfd4f" d="
  M 29.54 17.75
  L 29.75 20.21
  Q 29.97 23.93 28.19 27.00
  L 21.19 27.00
  L 23.50 24.21
  L 26.70 24.44
  A 0.53 0.48 -86.1 0 0 27.22 23.94
  Q 27.31 22.47 27.40 21.01
  Q 27.51 19.28 26.40 19.96
  A 2.05 1.49 20.4 0 1 25.50 20.21
  L 22.00 20.29
  Q 20.96 20.34 20.00 19.96
  Q 22.40 18.32 25.33 18.25
  Q 25.67 18.24 26.14 18.38
  Q 27.23 18.69 26.97 17.95
  A 0.75 0.60 -9.7 0 0 26.24 17.55
  Q 23.70 17.71 21.46 16.50
  L 21.54 16.25
  L 26.45 15.89
  Q 27.08 15.84 26.82 15.47
  Q 26.60 15.16 26.00 15.25
  Q 24.32 15.51 21.79 15.00
  Q 20.64 13.88 19.00 14.01
  Q 16.11 14.22 17.87 12.87
  Q 18.28 12.56 18.83 12.49
  Q 23.52 11.87 28.20 12.49
  A 0.96 0.93 -8.8 0 1 28.92 13.00
  Q 30.03 15.22 29.54 17.75
  Z"
/>
<path fill="#c5c53c" d="
  M 21.79 15.00
  Q 24.32 15.51 26.00 15.25
  Q 26.60 15.16 26.82 15.47
  Q 27.08 15.84 26.45 15.89
  L 21.54 16.25
  Q 21.49 15.60 21.79 15.00
  Z"
/>
<path fill="#c5c53c" d="
  M 21.46 16.50
  Q 23.70 17.71 26.24 17.55
  A 0.75 0.60 -9.7 0 1 26.97 17.95
  Q 27.23 18.69 26.14 18.38
  Q 25.67 18.24 25.33 18.25
  Q 22.40 18.32 20.00 19.96
  L 18.75 19.96
  Q 18.95 18.49 18.25 17.29
  Q 20.07 17.54 21.46 16.50
  Z"
/>
<path fill="#fcfd4f" d="
  M 18.25 17.29
  Q 18.95 18.49 18.75 19.96
  Q 15.81 21.64 16.50 18.25
  Q 16.79 16.84 18.25 17.29
  Z"
/>
<path fill="#c5c53c" d="
  M 23.50 24.21
  Q 23.46 22.00 22.00 20.29
  L 25.50 20.21
  A 2.05 1.49 20.4 0 0 26.40 19.96
  Q 27.51 19.28 27.40 21.01
  Q 27.31 22.47 27.22 23.94
  A 0.53 0.48 -86.1 0 1 26.70 24.44
  L 23.50 24.21
  Z"
/>
<path fill="#3ecc5f" d="
  M 29.75 20.21
  Q 34.21 24.23 28.69 27.00
  L 28.19 27.00
  Q 29.97 23.93 29.75 20.21
  Z"
/>
</svg>
